{
  "accessors": [
    {
      "bufferView": 2,
      "componentType": 5126,
      "count": 80,
      "max": [
        0.1037210002541542,
        0.7031509876251221,
        0.028362499549984932
      ],
      "min": [
        -0.1037210002541542,
        0.6685739755630493,
        -0.028362499549984932
      ],
      "type": "VEC3"
    },
    {
      "bufferView": 2,
      "byteOffset": 960,
      "componentType": 5126,
      "count": 80,
      "max": [
        0.6890990138053894,
        0.7160695195198059,
        0.7218858003616333
      ],
      "min": [
        -0.6890990138053894,
        -0.7413367629051208,
        -0.7218858003616333
      ],
      "type": "VEC3"
    },
    {
      "bufferView": 3,
      "componentType": 5126,
      "count": 80,
      "max": [
        0.6048967242240906,
        0.9537889957427979,
        0.82448410987854,
        1.0
      ],
      "min": [
        -0.6048967242240906,
        -0.7025925517082214,
        -0.8244842290878296,
        1.0
      ],
      "type": "VEC4"
    },
    {
      "bufferView": 1,
      "componentType": 5126,
      "count": 80,
      "max": [
        1.0,
        1.0
      ],
      "min": [
        0.0,
        0.0
      ],
      "type": "VEC2"
    },
    {
      "bufferView": 0,
      "componentType": 5125,
      "count": 204,
      "type": "SCALAR"
    },
    {
      "bufferView": 2,
      "byteOffset": 1920,
      "componentType": 5126,
      "count": 1728,
      "max": [
        0.10231400281190872,
        1.0,
        0.0781422033905983
      ],
      "min": [
        -0.14155800640583038,
        0.570559024810791,
        -0.0781422033905983
      ],
      "type": "VEC3"
    },
    {
      "bufferView": 2,
      "byteOffset": 22656,
      "componentType": 5126,
      "count": 1728,
      "max": [
        0.9935126900672913,
        1.0,
        0.9999920129776001
      ],
      "min": [
        -0.9935126900672913,
        -1.0,
        -0.9999920129776001
      ],
      "type": "VEC3"
    },
    {
      "bufferView": 3,
      "byteOffset": 1280,
      "componentType": 5126,
      "count": 1728,
      "max": [
        0.9995075464248657,
        0.9999919533729553,
        1.0,
        1.0
      ],
      "min": [
        -0.9999994039535522,
        -0.9942067861557007,
        -1.0,
        -1.0
      ],
      "type": "VEC4"
    },
    {
      "bufferView": 1,
      "byteOffset": 640,
      "componentType": 5126,
      "count": 1728,
      "max": [
        1.0,
        1.0
      ],
      "min": [
        0.0,
        0.0
      ],
      "type": "VEC2"
    },
    {
      "bufferView": 0,
      "byteOffset": 816,
      "componentType": 5125,
      "count": 4896,
      "type": "SCALAR"
    },
    {
      "bufferView": 2,
      "byteOffset": 43392,
      "componentType": 5126,
      "count": 624,
      "max": [
        0.2049580067396164,
        0.716992974281311,
        0.027761399745941162
      ],
      "min": [
        -0.2049580067396164,
        -1.0,
        -0.027761399745941162
      ],
      "type": "VEC3"
    },
    {
      "bufferView": 2,
      "byteOffset": 50880,
      "componentType": 5126,
      "count": 624,
      "max": [
        0.9715491533279419,
        0.7813661098480225,
        1.0
      ],
      "min": [
        -0.9715491533279419,
        -0.8726152181625366,
        -1.0
      ],
      "type": "VEC3"
    },
    {
      "bufferView": 3,
      "byteOffset": 28928,
      "componentType": 5126,
      "count": 624,
      "max": [
        1.0,
        0.9393343329429626,
        0.971554160118103,
        1.0
      ],
      "min": [
        -1.0,
        -1.0,
        -0.971554160118103,
        1.0
      ],
      "type": "VEC4"
    },
    {
      "bufferView": 1,
      "byteOffset": 14464,
      "componentType": 5126,
      "count": 624,
      "max": [
        1.0,
        1.0
      ],
      "min": [
        0.0,
        0.0
      ],
      "type": "VEC2"
    },
    {
      "bufferView": 0,
      "byteOffset": 20400,
      "componentType": 5125,
      "count": 1740,
      "type": "SCALAR"
    }
  ],
  "asset": {
    "extras": {
      "author": "Efarys (https://sketchfab.com/Efarys)",
      "license": "CC-BY-4.0 (http://creativecommons.org/licenses/by/4.0/)",
      "source": "https://sketchfab.com/3d-models/miraz-sword-566d86286a8146bdbee424c0dc775e91",
      "title": "Miraz Sword"
    },
    "generator": "Sketchfab-12.67.0",
    "version": "2.0"
  },
  "bufferViews": [
    {
      "buffer": 0,
      "byteLength": 27360,
      "name": "floatBufferViews",
      "target": 34963
    },
    {
      "buffer": 0,
      "byteLength": 19456,
      "byteOffset": 27360,
      "byteStride": 8,
      "name": "floatBufferViews",
      "target": 34962
    },
    {
      "buffer": 0,
      "byteLength": 58368,
      "byteOffset": 46816,
      "byteStride": 12,
      "name": "floatBufferViews",
      "target": 34962
    },
    {
      "buffer": 0,
      "byteLength": 38912,
      "byteOffset": 105184,
      "byteStride": 16,
      "name": "floatBufferViews",
      "target": 34962
    }
  ],
  "buffers": [
    {
      "byteLength": 144096,
      "uri": "scene.bin"
    }
  ],
  "images": [
    {
      "uri": "textures/None_002_baseColor.jpeg"
    },
    {
      "uri": "textures/None_002_metallicRoughness.png"
    },
    {
      "uri": "textures/None_002_normal.png"
    },
    {
      "uri": "textures/None_baseColor.jpeg"
    },
    {
      "uri": "textures/None_metallicRoughness.png"
    },
    {
      "uri": "textures/None_normal.png"
    },
    {
      "uri": "textures/None_001_baseColor.jpeg"
    },
    {
      "uri": "textures/None_001_metallicRoughness.png"
    },
    {
      "uri": "textures/None_001_normal.png"
    }
  ],
  "materials": [
    {
      "doubleSided": true,
      "name": "None_002",
      "normalTexture": {
        "index": 2
      },
      "occlusionTexture": {
        "index": 1
      },
      "pbrMetallicRoughness": {
        "baseColorTexture": {
          "index": 0
        },
        "metallicRoughnessTexture": {
          "index": 1
        }
      }
    },
    {
      "doubleSided": true,
      "name": "None",
      "normalTexture": {
        "index": 5
      },
      "occlusionTexture": {
        "index": 4
      },
      "pbrMetallicRoughness": {
        "baseColorTexture": {
          "index": 3
        },
        "metallicRoughnessTexture": {
          "index": 4
        }
      }
    },
    {
      "doubleSided": true,
      "name": "None_001",
      "normalTexture": {
        "index": 8
      },
      "occlusionTexture": {
        "index": 7
      },
      "pbrMetallicRoughness": {
        "baseColorTexture": {
          "index": 6
        },
        "metallicRoughnessTexture": {
          "index": 7
        }
      }
    }
  ],
  "meshes": [
    {
      "name": "defaultMaterial",
      "primitives": [
        {
          "attributes": {
            "NORMAL": 1,
            "POSITION": 0,
            "TANGENT": 2,
            "TEXCOORD_0": 3
          },
          "indices": 4,
          "material": 0,
          "mode": 4
        }
      ]
    },
    {
      "name": "defaultMaterial",
      "primitives": [
        {
          "attributes": {
            "NORMAL": 6,
            "POSITION": 5,
            "TANGENT": 7,
            "TEXCOORD_0": 8
          },
          "indices": 9,
          "material": 1,
          "mode": 4
        }
      ]
    },
    {
      "name": "defaultMaterial",
      "primitives": [
        {
          "attributes": {
            "NORMAL": 11,
            "POSITION": 10,
            "TANGENT": 12,
            "TEXCOORD_0": 13
          },
          "indices": 14,
          "material": 2,
          "mode": 4
        }
      ]
    }
  ],
  "nodes": [
    {
      "children": [
        1
      ],
      "matrix": [
        1.0,
        0.0,
        0.0,
        0.0,
        0.0,
        -1.0,
        -8.328840340277033e-05,
        0.0,
        0.0,
        8.328840340277033e-05,
        -1.0,
        0.0,
        0.0,
        -8.26999979608445e-08,
        7.970000126533704e-08,
        1.0
      ],
      "name": "Sketchfab_model"
    },
    {
      "children": [
        2
      ],
      "matrix": [
        1.0,
        0.0,
        0.0,
        0.0,
        0.0,
        -4.371139006309477e-08,
        0.999999999999999,
        0.0,
        0.0,
        -0.999999999999999,
        -4.371139006309477e-08,
        0.0,
        0.0,
        0.0,
        0.0,
        1.0
      ],
      "name": "Collada visual scene group"
    },
    {
      "children": [
        3,
        4,
        5
      ],
      "name": "rekojsc3lp_Cube.007"
    },
    {
      "mesh": 0,
      "name": "defaultMaterial"
    },
    {
      "mesh": 1,
      "name": "defaultMaterial"
    },
    {
      "mesh": 2,
      "name": "defaultMaterial"
    }
  ],
  "samplers": [
    {
      "magFilter": 9729,
      "minFilter": 9987,
      "wrapS": 10497,
      "wrapT": 10497
    }
  ],
  "scene": 0,
  "scenes": [
    {
      "name": "Sketchfab_Scene",
      "nodes": [
        0
      ]
    }
  ],
  "textures": [
    {
      "sampler": 0,
      "source": 0
    },
    {
      "sampler": 0,
      "source": 1
    },
    {
      "sampler": 0,
      "source": 2
    },
    {
      "sampler": 0,
      "source": 3
    },
    {
      "sampler": 0,
      "source": 4
    },
    {
      "sampler": 0,
      "source": 5
    },
    {
      "sampler": 0,
      "source": 6
    },
    {
      "sampler": 0,
      "source": 7
    },
    {
      "sampler": 0,
      "source": 8
    }
  ]
}
